<svg width="75" height="16" viewBox="0 0 75 16" fill="none" xmlns="http://www.w3.org/2000/svg">
<path d="M0.277876 0.454545H4.07049L8.07617 10.2273H8.24663L12.2523 0.454545H16.0449V15H13.062V5.53267H12.9412L9.17702 14.929H7.14577L3.38157 5.49716H3.26083V15H0.277876V0.454545ZM21.0858 15H17.7903L22.8116 0.454545H26.7747L31.7889 15H28.4934L24.85 3.77841H24.7363L21.0858 15ZM20.8798 9.28267H28.6639V11.6832H20.8798V9.28267ZM33.5396 15V0.454545H36.6149V6.8679H36.8066L42.041 0.454545H45.7271L40.3294 6.96733L45.791 15H42.112L38.1277 9.01989L36.6149 10.8665V15H33.5396ZM49.8358 15H46.5403L51.5616 0.454545H55.5247L60.5389 15H57.2434L53.6 3.77841H53.4863L49.8358 15ZM49.6298 9.28267H57.4139V11.6832H49.6298V9.28267ZM74.9725 7.72727C74.9725 9.31345 74.6718 10.6629 74.0705 11.7756C73.4739 12.8883 72.6595 13.7382 71.6273 14.3253C70.5998 14.9077 69.4445 15.1989 68.1614 15.1989C66.8688 15.1989 65.7087 14.9053 64.6813 14.3182C63.6538 13.7311 62.8418 12.8812 62.2452 11.7685C61.6486 10.6558 61.3503 9.30871 61.3503 7.72727C61.3503 6.1411 61.6486 4.79167 62.2452 3.67898C62.8418 2.56629 63.6538 1.71875 64.6813 1.13636C65.7087 0.549242 66.8688 0.255681 68.1614 0.255681C69.4445 0.255681 70.5998 0.549242 71.6273 1.13636C72.6595 1.71875 73.4739 2.56629 74.0705 3.67898C74.6718 4.79167 74.9725 6.1411 74.9725 7.72727ZM71.8546 7.72727C71.8546 6.69981 71.7007 5.83333 71.3929 5.12784C71.0899 4.42235 70.6614 3.88731 70.1074 3.52273C69.5534 3.15814 68.9048 2.97585 68.1614 2.97585C67.418 2.97585 66.7694 3.15814 66.2154 3.52273C65.6614 3.88731 65.2305 4.42235 64.9228 5.12784C64.6197 5.83333 64.4682 6.69981 64.4682 7.72727C64.4682 8.75473 64.6197 9.62121 64.9228 10.3267C65.2305 11.0322 65.6614 11.5672 66.2154 11.9318C66.7694 12.2964 67.418 12.4787 68.1614 12.4787C68.9048 12.4787 69.5534 12.2964 70.1074 11.9318C70.6614 11.5672 71.0899 11.0322 71.3929 10.3267C71.7007 9.62121 71.8546 8.75473 71.8546 7.72727Z" fill="white"/>
</svg>
